<svg width="96" height="91" viewBox="0 0 96 91" fill="none" xmlns="http://www.w3.org/2000/svg">
<path d="M47.9114 0C40.5722 7.32775 40.5722 19.2083 47.9114 26.5361C55.2498 19.2083 55.2498 7.32775 47.9114 0Z" fill="#C3DE71"/>
<path d="M47.9114 0C40.5722 7.32775 40.5722 19.2083 47.9114 26.5361C55.2498 19.2083 55.2498 7.32775 47.9114 0Z" fill="#B9D35E"/>
<path d="M47.9114 34.5571C47.9114 34.5571 26.64 12.8582 0 11.4146C0 11.4146 47.9114 38.2196 47.9114 90.5446C63.3957 75.0844 63.3957 50.018 47.9114 34.5571Z" fill="#76CCD3"/>
<path d="M61.1284 4.40395C59.0692 5.38698 57.1894 7.36005 55.5318 9.73476C56.4482 15.1863 55.2294 20.9258 51.8728 25.6008C55.0628 24.3025 59.4476 21.1975 62.1607 13.7511C65.8824 3.53889 72.4866 3.16675 72.4866 3.16675C72.4866 3.16675 67.438 1.39098 61.1284 4.40395Z" fill="#76CCD3"/>
<path d="M33.6614 13.7516C36.3752 21.1973 40.7593 24.303 43.9493 25.6013C40.5926 20.9263 39.3746 15.1868 40.2902 9.73525C38.6327 7.35984 36.7522 5.38747 34.6937 4.40444C28.3841 1.39147 23.3354 3.16723 23.3354 3.16723C23.3354 3.16723 29.9397 3.53938 33.6614 13.7516Z" fill="#76CCD3"/>
<path d="M37.0687 54.7847C34.7944 66.1899 37.5849 78.3969 45.4354 87.8235C45.0085 75.1298 41.6336 64.0736 37.0687 54.7847Z" fill="#B9D35E"/>
<path d="M49.6704 32.8895C54.1656 37.391 57.4182 42.6663 59.4414 48.2878C73.6177 23.8442 95.823 11.4146 95.823 11.4146C73.6852 12.6145 55.2683 27.7904 49.6704 32.8895Z" fill="#B9D35E"/>
<path d="M75.7672 30.5733C77.7539 34.6501 78.8707 39.224 78.8707 44.0541C78.8707 56.5589 71.3916 67.3455 60.669 72.2101C60.0734 74.7421 59.2414 77.2284 58.1689 79.634C73.6434 75.1774 84.9982 60.9193 84.9982 44.0541C84.9982 37.5402 83.2991 31.418 80.3292 26.0942C78.839 27.4775 77.3102 28.9682 75.7672 30.5733Z" fill="#76CCD3"/>
<path d="M35.124 72.1991C24.4135 67.3296 16.9456 56.55 16.9456 44.0536C16.9456 39.2136 18.0673 34.632 20.0617 30.549C18.5209 28.9452 16.9913 27.4538 15.4997 26.0713C12.5221 31.4 10.8181 37.5306 10.8181 44.0536C10.8181 60.916 22.1694 75.1727 37.6396 79.6314C36.5629 77.2343 35.726 74.7465 35.124 72.1991Z" fill="#B9D35E"/>
</svg>
